<svg width="115" height="114" viewBox="0 0 115 114" fill="none" xmlns="http://www.w3.org/2000/svg">
<path d="M43.0569 29.3926C42.9558 30.1502 42.9962 33.0293 43.1243 33.8558C43.3804 35.4882 43.7511 36.7279 44.3846 38.0573C45.9347 41.3151 48.5226 43.4227 52.2024 44.4214C53.5435 44.7865 54.5612 44.9173 56.3269 44.9587L57.9242 45L57.9713 44.7383C58.0522 44.2837 57.9511 42.2381 57.8029 41.5355C56.92 37.1205 53.9883 33.4839 49.4459 31.1627C48.4822 30.6737 47.2354 30.1502 46.2379 29.8265C45.6044 29.6199 43.3063 29 43.1782 29C43.1445 29 43.0906 29.1791 43.0569 29.3926Z" fill="#063B27"/>
<path d="M72.4228 29.3386C69.5842 30.105 67.4923 31.0302 65.4407 32.4249C62.1851 34.6412 59.952 37.8793 59.239 41.4212C59.0641 42.3257 58.9564 43.7549 59.017 44.4246L59.0708 44.977L60.2479 44.9977C62.7771 45.0391 65.2389 44.5282 67.2569 43.5409C70.9833 41.725 73.2501 38.3074 73.9161 33.5158C74.0102 32.8115 74.0304 30.3329 73.9497 29.525C73.9026 29.097 73.869 28.9934 73.7815 29.0003C73.7143 29.0003 73.1089 29.1522 72.4228 29.3386Z" fill="#063B27"/>
<path d="M51.5306 0.207228C44.344 1.27667 35.9595 3.88612 31.2112 6.49556C16.4101 14.7089 6.74232 27.0717 2.46454 43.1561C0.75343 49.6583 0.325653 59.0695 1.43787 65.8711C3.44843 77.9345 8.79565 88.3722 17.5223 97.0561C25.4362 105.013 34.4195 109.975 45.3279 112.499C50.8034 113.782 61.0701 114.082 66.7595 113.098C90.159 109.205 108.382 91.6661 113.43 68.2667C114.628 62.62 114.756 52.0967 113.644 46.5783C110.307 29.6811 100.383 15.9067 85.3679 7.30834C77.1973 2.60278 69.1551 0.421117 59.2306 0.16445C55.7229 0.0788948 52.2579 0.121673 51.5306 0.207228ZM68.1284 5.55445C81.6034 8.33501 93.4956 16.2489 100.939 27.3711C107.142 36.6967 109.922 45.8083 109.922 57.0589C109.922 71.3895 104.746 83.8378 94.5223 94.1045C87.1218 101.505 78.609 106.125 67.9145 108.478C63.0806 109.504 52.5573 109.504 47.4668 108.435C36.8151 106.211 27.6179 101.163 20.1318 93.42C12.774 85.8056 8.15399 77.0361 6.10065 66.8122C5.11676 61.6789 5.11676 51.8828 6.10065 47.1345C10.7207 25.275 26.5056 9.61834 48.2795 5.29778C52.9423 4.35667 63.0379 4.48501 68.1284 5.55445Z" fill="#063B27"/>
<path d="M52.8141 15.7778C43.3175 16.8472 35.8741 20.5261 28.6019 27.7556C19.7469 36.525 15.8113 46.2783 16.3675 58.3417C16.6669 65.0578 17.8219 69.5922 20.7308 75.4528C24.8375 83.7517 31.083 89.9117 39.553 94.0611C46.2263 97.355 49.7769 98.125 57.7336 98.125C64.963 98.0822 67.9147 97.5261 74.0747 94.9167C90.2019 88.0294 100.554 70.7472 98.8002 53.4222C97.2175 37.2094 87.8491 24.59 72.8769 18.43C67.1447 16.0344 59.3163 15.0078 52.8141 15.7778ZM66.8452 21.0822C80.7908 24.6328 91.3569 36.0117 94.0947 50.4278C94.7364 53.8072 94.6508 60.9511 93.9236 64.4161C91.5708 75.795 83.4002 85.9333 72.7914 90.6817C67.4014 93.12 64.1075 93.8044 57.7336 93.8044C53.0708 93.8044 51.2741 93.6333 48.4508 92.8633C37.8847 90.04 29.0725 82.8106 24.538 73.3139C16.068 55.775 21.8002 35.6694 38.0986 25.4883C44.2586 21.6811 49.7341 20.1411 57.5625 20.0983C61.7547 20.0556 63.5513 20.2694 66.8452 21.0822Z" fill="#063B27"/>
<path d="M56.6962 47.5469V50.1269L54.7241 50.6892C52.0166 51.4831 49.61 53.6331 48.674 56.18C47.3036 59.7523 47.8384 63.7546 49.9442 65.9377C51.2812 67.3269 52.4845 67.9554 56.3619 69.3115C60.3061 70.7008 61.3757 71.4615 61.3757 72.8508C61.3757 74.3392 60.8409 75.0008 59.2365 75.5962C57.9997 76.0592 57.4649 76.0923 56.0611 75.7946C54.089 75.3646 51.9497 74.3723 50.5459 73.2146L49.5765 72.4208L48.9749 73.4462C48.6072 74.0085 47.805 75.4969 47.1699 76.7538L46 79.0692L47.2367 79.8962C49.142 81.12 52.518 82.3769 54.6238 82.6415L56.529 82.8731L56.6293 85.4531L56.7296 88H58.7017H60.7072V85.3538C60.7072 83.1046 60.8075 82.6415 61.3089 82.4762C63.5484 81.7485 66.4898 80.1277 67.4926 79.1354C70.5677 75.9931 70.8686 70.1054 68.0942 66.7977C66.9578 65.4415 63.6152 63.6223 60.3061 62.5638C56.3285 61.2738 55.0583 58.76 57.7323 57.4038C59.2365 56.61 61.3757 56.7754 63.5818 57.9C64.6514 58.4292 65.5539 58.8262 65.5873 58.7931C65.6208 58.76 66.3227 57.3708 67.1583 55.7169L68.6959 52.6738L66.7907 51.8469C65.7545 51.3838 63.9495 50.8215 62.813 50.59L60.7072 50.1931V47.6131V45H58.7017H56.6962V47.5469Z" fill="#063B27"/>
</svg>
