<svg width="452" height="381" viewBox="0 0 452 381" fill="none" xmlns="http://www.w3.org/2000/svg">
<path d="M251.234 2.4386C250.592 7.14415 250.849 25.0253 251.662 30.1586C253.287 40.2969 255.64 47.9969 259.661 56.253C269.5 76.4869 285.927 89.5769 309.283 95.7797C317.796 98.0469 324.255 98.8597 335.463 99.1164L345.602 99.373L345.901 97.7475C346.414 94.9242 345.773 82.2192 344.832 77.8558C339.228 50.4353 320.619 27.8486 291.787 13.4325C285.67 10.3953 277.756 7.14415 271.425 5.1336C267.404 3.85027 252.817 0.000259399 252.004 0.000259399C251.79 0.000259399 251.448 1.11249 251.234 2.4386Z" fill="#063B27"/>
<path d="M441.039 2.13937C422.987 6.8877 409.683 12.6199 396.636 21.261C375.931 34.9927 361.729 55.0555 357.195 77.0005C356.082 82.6044 355.398 91.4594 355.783 95.6088L356.125 99.031L363.611 99.1594C379.696 99.416 395.352 96.2505 408.186 90.1333C431.884 78.8827 446.301 57.7077 450.536 28.0199C451.134 23.6566 451.263 8.29936 450.749 3.29436C450.45 0.642143 450.236 0.000480652 449.68 0.043251C449.252 0.043251 445.402 0.984367 441.039 2.13937Z" fill="#063B27"/>
<path d="M137.531 104.207C130.344 105.277 121.96 107.886 117.211 110.496C102.41 118.709 92.7423 131.072 88.4645 147.156C86.7534 153.658 86.3257 163.069 87.4379 169.871C89.4484 181.934 94.7957 192.372 103.522 201.056C111.436 209.013 120.42 213.975 131.328 216.499C136.803 217.782 147.07 218.082 152.76 217.098C176.159 213.205 194.382 195.666 199.43 172.267C200.628 166.62 200.756 156.097 199.644 150.578C196.307 133.681 186.383 119.907 171.368 111.308C163.197 106.603 155.155 104.421 145.231 104.164C141.723 104.079 138.258 104.122 137.531 104.207ZM154.128 109.554C167.603 112.335 179.496 120.249 186.939 131.371C193.142 140.697 195.922 149.808 195.922 161.059C195.922 175.389 190.746 187.838 180.522 198.104C173.122 205.505 164.609 210.125 153.915 212.478C149.081 213.504 138.557 213.504 133.467 212.435C122.815 210.211 113.618 205.163 106.132 197.42C98.774 189.806 94.154 181.036 92.1007 170.812C91.1168 165.679 91.1168 155.883 92.1007 151.134C96.7207 129.275 112.506 113.618 134.28 109.298C138.942 108.357 149.038 108.485 154.128 109.554Z" fill="#063B27"/>
<path d="M138.814 119.778C129.317 120.847 121.874 124.526 114.602 131.756C105.747 140.525 101.811 150.278 102.367 162.342C102.667 169.058 103.822 173.592 106.731 179.453C110.837 187.752 117.083 193.912 125.553 198.061C132.226 201.355 135.777 202.125 143.734 202.125C150.963 202.082 153.915 201.526 160.075 198.917C176.202 192.029 186.554 174.747 184.8 157.422C183.217 141.209 173.849 128.59 158.877 122.43C153.145 120.034 145.316 119.008 138.814 119.778ZM152.845 125.082C166.791 128.633 177.357 140.012 180.095 154.428C180.736 157.807 180.651 164.951 179.924 168.416C177.571 179.795 169.4 189.933 158.791 194.682C153.401 197.12 150.107 197.804 143.734 197.804C139.071 197.804 137.274 197.633 134.451 196.863C123.885 194.04 115.072 186.811 110.538 177.314C102.068 159.775 107.8 139.669 124.099 129.488C130.259 125.681 135.734 124.141 143.562 124.098C147.755 124.056 149.551 124.269 152.845 125.082Z" fill="#063B27"/>
<path d="M142.022 135.05V138.387L139.498 139.114C136.033 140.141 132.953 142.921 131.756 146.215C130.002 150.835 130.686 156.011 133.381 158.834C135.092 160.631 136.632 161.444 141.595 163.198C146.642 164.994 148.011 165.978 148.011 167.775C148.011 169.7 147.327 170.556 145.273 171.326C143.691 171.924 143.006 171.967 141.21 171.582C138.686 171.026 135.948 169.743 134.151 168.246L132.911 167.219L132.141 168.545C131.67 169.272 130.643 171.197 129.831 172.823L128.333 175.817L129.916 176.887C132.355 178.469 136.675 180.095 139.37 180.437L141.808 180.737L141.937 184.073L142.065 187.367H144.589H147.156V183.945C147.156 181.036 147.284 180.437 147.926 180.223C150.792 179.282 154.556 177.186 155.84 175.903C159.775 171.839 160.16 164.224 156.61 159.947C155.155 158.193 150.877 155.84 146.642 154.471C141.552 152.803 139.926 149.552 143.348 147.798C145.273 146.771 148.011 146.985 150.835 148.439C152.203 149.124 153.358 149.637 153.401 149.594C153.444 149.552 154.342 147.755 155.412 145.616L157.38 141.681L154.941 140.611C153.615 140.012 151.305 139.285 149.851 138.986L147.156 138.472V135.136V131.756H144.589H142.022V135.05Z" fill="#063B27"/>
<path d="M341.153 106.603C341.024 106.902 340.554 109.084 340.041 111.437C336.49 128.377 329.988 143.306 320.277 156.995C302.567 181.849 276.772 202.425 245.972 216.37C226.252 225.268 209.654 230.23 164.694 240.625C118.794 251.234 97.2339 258.335 76.9144 269.5C63.8244 276.773 53.2583 284.644 42.735 295.167C29.9872 307.915 21.6028 319.508 13.86 335.164C9.625 343.763 9.24 344.704 5.30444 357.837C1.62556 370.028 0 376.787 0 379.739V380.723H10.4806H20.9611L21.1322 379.739C21.2606 379.225 21.6456 377.172 22.0306 375.162C27.2494 347.356 43.8044 320.021 67.375 300.3C80.7644 289.093 93.0844 281.735 110.581 274.42C127.093 267.533 146.3 262.014 184.158 253.245C191.473 251.577 201.697 249.138 206.916 247.855C253.843 236.39 284.087 221.846 311.85 197.377C337.046 175.218 354.457 146.129 360.617 115.971C361.258 112.763 361.9 109.255 362.071 108.1L362.371 106.089H351.847C343.848 106.089 341.281 106.218 341.153 106.603Z" fill="#063B27"/>
<path d="M342.436 192.629C336.661 198.532 324.812 209.141 317.411 215.13C313.005 218.638 300.129 227.578 295.894 230.059L294.311 230.958L294.397 304.835L294.525 378.669L295.552 379.482C296.493 380.252 297.562 380.295 321.261 380.295C344.19 380.295 346.029 380.252 346.885 379.525L347.783 378.798L347.698 283.104L347.569 187.41L342.436 192.629Z" fill="#063B27"/>
<path d="M272.922 241.78C259.148 248.197 243.02 254.015 225.353 259.02L222.872 259.704V320.235V380.723H249.608H276.344V310.567C276.344 271.982 276.216 240.412 276.045 240.454C275.831 240.454 274.462 241.053 272.922 241.78Z" fill="#063B27"/>
<path d="M190.789 267.362C183.859 268.987 172.138 271.81 164.823 273.65L151.433 276.944V328.833V380.723H178.169H204.905V322.545C204.905 267.404 204.863 264.367 204.178 264.41C203.75 264.41 197.719 265.736 190.789 267.362Z" fill="#063B27"/>
<path d="M119.949 287.424C108.784 291.916 97.747 298.247 87.6942 305.904C82.3042 310.011 73.3209 318.823 72.9359 320.449C72.8075 321.005 72.7648 334.737 72.8075 350.992L72.9359 380.509H99.672H126.408L126.536 332.897C126.622 287.809 126.579 285.328 125.895 285.328C125.467 285.328 122.815 286.269 119.949 287.424Z" fill="#063B27"/>
<path d="M53.2585 349.794C48.8952 359.163 45.0024 370.884 43.4624 379.311L43.2485 380.723H48.9808H54.7558V364.039C54.7558 354.842 54.6702 347.356 54.5846 347.356C54.4563 347.356 53.8574 348.468 53.2585 349.794Z" fill="#063B27"/>
</svg>
