<svg width="406" height="342" viewBox="0 0 406 342" fill="none" xmlns="http://www.w3.org/2000/svg">
<path d="M225.676 2.19052C225.099 6.41737 225.33 22.4794 226.06 27.0905C227.52 36.1975 229.633 43.1141 233.245 50.5303C242.083 68.7058 256.839 80.4641 277.819 86.0359C285.466 88.0725 291.269 88.8026 301.336 89.0331L310.443 89.2637L310.712 87.8035C311.173 85.2674 310.597 73.8549 309.751 69.9354C304.718 45.3044 288.002 25.0155 262.103 12.066C256.608 9.33775 249.5 6.41737 243.813 4.61136C240.201 3.45858 227.097 0.000244141 226.367 0.000244141C226.175 0.000244141 225.868 0.999321 225.676 2.19052Z" fill="#063B27"/>
<path d="M396.171 1.92197C379.955 6.18725 368.005 11.3363 356.285 19.0984C337.687 31.4331 324.929 49.4548 320.856 69.1673C319.857 74.2011 319.242 82.1553 319.588 85.8826L319.896 88.9567L326.62 89.072C341.068 89.3025 355.132 86.459 366.66 80.9641C387.948 70.8581 400.898 51.8372 404.702 25.1697C405.24 21.2502 405.355 7.4553 404.894 2.95947C404.625 0.577057 404.433 0.000671387 403.933 0.0391006C403.549 0.0391006 400.091 0.884468 396.171 1.92197Z" fill="#063B27"/>
<path d="M306.447 95.7579C306.331 96.0269 305.909 97.9866 305.448 100.1C302.258 115.317 296.418 128.727 287.695 141.024C271.787 163.349 248.616 181.832 220.949 194.359C203.235 202.351 188.325 206.809 147.94 216.146C106.709 225.676 87.3421 232.055 69.0898 242.084C57.3315 248.616 47.8403 255.687 38.3875 265.139C26.9366 276.59 19.4051 287.004 12.45 301.068C8.64583 308.791 8.3 309.637 4.76481 321.433C1.46019 332.385 0 338.456 0 341.107V341.991H9.41435H18.8287L18.9824 341.107C19.0977 340.646 19.4435 338.802 19.7894 336.996C24.4773 312.019 39.3481 287.465 60.5208 269.75C72.5481 259.683 83.6148 253.074 99.331 246.503C114.163 240.316 131.417 235.359 165.424 227.482C171.994 225.983 181.178 223.793 185.866 222.64C228.019 212.342 255.187 199.277 280.125 177.298C302.758 157.393 318.397 131.263 323.931 104.173C324.507 101.291 325.083 98.1403 325.237 97.1028L325.506 95.2968H316.053C308.868 95.2968 306.562 95.412 306.447 95.7579Z" fill="#063B27"/>
<path d="M307.6 173.033C302.412 178.336 291.768 187.865 285.121 193.245C281.163 196.396 269.597 204.427 265.792 206.656L264.371 207.462L264.447 273.824L264.563 340.147L265.485 340.877C266.33 341.569 267.291 341.607 288.579 341.607C309.175 341.607 310.828 341.569 311.596 340.916L312.403 340.263L312.326 254.304L312.211 168.345L307.6 173.033Z" fill="#063B27"/>
<path d="M245.158 217.184C232.784 222.948 218.298 228.174 202.428 232.669L200.199 233.284V287.657V341.991H224.215H248.232V278.973C248.232 244.313 248.116 215.954 247.963 215.993C247.771 215.993 246.541 216.531 245.158 217.184Z" fill="#063B27"/>
<path d="M171.38 240.163C165.155 241.623 154.626 244.159 148.055 245.811L136.028 248.77V295.381V341.991H160.044H184.06V289.732C184.06 240.201 184.022 237.473 183.407 237.511C183.023 237.511 177.605 238.702 171.38 240.163Z" fill="#063B27"/>
<path d="M107.747 258.184C97.7173 262.219 87.8034 267.906 78.7734 274.784C73.9317 278.473 65.8622 286.389 65.5164 287.849C65.4011 288.348 65.3627 300.683 65.4011 315.285L65.5164 341.799H89.5326H113.549L113.664 299.031C113.741 258.53 113.703 256.301 113.088 256.301C112.703 256.301 110.321 257.147 107.747 258.184Z" fill="#063B27"/>
<path d="M47.8403 314.209C43.9209 322.625 40.4241 333.153 39.0408 340.723L38.8486 341.991H43.9977H49.1852V327.005C49.1852 318.744 49.1084 312.019 49.0315 312.019C48.9162 312.019 48.3783 313.018 47.8403 314.209Z" fill="#063B27"/>
</svg>
